# xmcd
#
# Track frame offsets: 
#        150
#        4090
#        21525
#        39275
#        54375
#        70875
#        87825
#        106550
#        124625
#        138500
#        153350
#        166785
#        184170
#
# Disc length: 3760 seconds
#
# Revision: 0
# Processed by: cddbd v1.5.2PL0 Copyright (c) Steve Scherf et al.
# Submitted via: ExactAudioCopy v1.0b1
#
DISCID=9b0eae0d
DTITLE=Patricia Kaas - Scene De Vie
DYEAR=1990
DGENRE=Chanson Francaise
TTITLE0=Generique
TTITLE1=Les Mannequins D'osier
TTITLE2=L'Heure Du Jazz
TTITLE3=Coeurs Brises
TTITLE4=Regarde Les Riches
TTITLE5=Les Hommes Qui Passent
TTITLE6=Bessie
TTITLE7=Tropic Blues Bar
TTITLE8=A L'Enterrement De Sidney Bechet
TTITLE9=Kennedy Rose
TTITLE10=Une Derniere Semaine A New York
TTITLE11=Patou Blues
TTITLE12=Generique (Orchestral)
EXTD=
EXTT0=
EXTT1=
EXTT2=
EXTT3=
EXTT4=
EXTT5=
EXTT6=
EXTT7=
EXTT8=
EXTT9=
EXTT10=
EXTT11=
EXTT12=
PLAYORDER=
